<?xml version="1.0" encoding="UTF-8" standalone="no"?>
<!DOCTYPE svg PUBLIC "-//W3C//DTD SVG 1.1//EN"
 "http://www.w3.org/Graphics/SVG/1.1/DTD/svg11.dtd">
<!-- Generated by graphviz version 13.1.1 (20250719.2154)
 -->
<!-- Pages: 1 -->
<svg width="597pt" height="6183pt"
 viewBox="0.00 0.00 597.00 6183.00" xmlns="http://www.w3.org/2000/svg" xmlns:xlink="http://www.w3.org/1999/xlink">
<g id="graph0" class="graph" transform="scale(4.16667 4.16667) rotate(0) translate(4 1480)">
<polygon fill="white" stroke="none" points="-4,4 -4,-1480 139.25,-1480 139.25,4 -4,4"/>
<!-- 0 -->
<g id="node1" class="node">
<title>0</title>
<polygon fill="lightblue" stroke="black" points="127.38,-1476 7.88,-1476 7.88,-1440 127.38,-1440 127.38,-1476"/>
<text xml:space="preserve" text-anchor="middle" x="67.62" y="-1453.72" font-family="Times,serif" font-size="12.00">A_Create Application</text>
</g>
<!-- 1 -->
<g id="node2" class="node">
<title>1</title>
<polygon fill="lightblue" stroke="black" points="107.12,-1404 28.12,-1404 28.12,-1368 107.12,-1368 107.12,-1404"/>
<text xml:space="preserve" text-anchor="middle" x="67.62" y="-1381.72" font-family="Times,serif" font-size="12.00">A_Submitted</text>
</g>
<!-- 0&#45;&gt;1 -->
<g id="edge1" class="edge">
<title>0&#45;&gt;1</title>
<path fill="none" stroke="black" d="M67.62,-1439.7C67.62,-1432.41 67.62,-1423.73 67.62,-1415.54"/>
<polygon fill="black" stroke="black" points="71.13,-1415.62 67.63,-1405.62 64.13,-1415.62 71.13,-1415.62"/>
</g>
<!-- 2 -->
<g id="node3" class="node">
<title>2</title>
<polygon fill="lightblue" stroke="black" points="115,-1332 20.25,-1332 20.25,-1296 115,-1296 115,-1332"/>
<text xml:space="preserve" text-anchor="middle" x="67.62" y="-1309.72" font-family="Times,serif" font-size="12.00">W_Handle leads</text>
</g>
<!-- 1&#45;&gt;2 -->
<g id="edge2" class="edge">
<title>1&#45;&gt;2</title>
<path fill="none" stroke="black" d="M67.62,-1367.7C67.62,-1360.41 67.62,-1351.73 67.62,-1343.54"/>
<polygon fill="black" stroke="black" points="71.13,-1343.62 67.63,-1333.62 64.13,-1343.62 71.13,-1343.62"/>
</g>
<!-- 3 -->
<g id="node4" class="node">
<title>3</title>
<polygon fill="lightblue" stroke="black" points="115,-1260 20.25,-1260 20.25,-1224 115,-1224 115,-1260"/>
<text xml:space="preserve" text-anchor="middle" x="67.62" y="-1237.72" font-family="Times,serif" font-size="12.00">W_Handle leads</text>
</g>
<!-- 2&#45;&gt;3 -->
<g id="edge3" class="edge">
<title>2&#45;&gt;3</title>
<path fill="none" stroke="black" d="M67.62,-1295.7C67.62,-1288.41 67.62,-1279.73 67.62,-1271.54"/>
<polygon fill="black" stroke="black" points="71.13,-1271.62 67.63,-1261.62 64.13,-1271.62 71.13,-1271.62"/>
</g>
<!-- 4 -->
<g id="node5" class="node">
<title>4</title>
<polygon fill="lightblue" stroke="black" points="134.5,-1188 0.75,-1188 0.75,-1152 134.5,-1152 134.5,-1188"/>
<text xml:space="preserve" text-anchor="middle" x="67.62" y="-1165.72" font-family="Times,serif" font-size="12.00">W_Complete application</text>
</g>
<!-- 3&#45;&gt;4 -->
<g id="edge4" class="edge">
<title>3&#45;&gt;4</title>
<path fill="none" stroke="black" d="M67.62,-1223.7C67.62,-1216.41 67.62,-1207.73 67.62,-1199.54"/>
<polygon fill="black" stroke="black" points="71.13,-1199.62 67.63,-1189.62 64.13,-1199.62 71.13,-1199.62"/>
</g>
<!-- 5 -->
<g id="node6" class="node">
<title>5</title>
<polygon fill="lightblue" stroke="black" points="103,-1116 32.25,-1116 32.25,-1080 103,-1080 103,-1116"/>
<text xml:space="preserve" text-anchor="middle" x="67.62" y="-1093.72" font-family="Times,serif" font-size="12.00">A_Concept</text>
</g>
<!-- 4&#45;&gt;5 -->
<g id="edge5" class="edge">
<title>4&#45;&gt;5</title>
<path fill="none" stroke="black" d="M67.62,-1151.7C67.62,-1144.41 67.62,-1135.73 67.62,-1127.54"/>
<polygon fill="black" stroke="black" points="71.13,-1127.62 67.63,-1117.62 64.13,-1127.62 71.13,-1127.62"/>
</g>
<!-- 6 -->
<g id="node7" class="node">
<title>6</title>
<polygon fill="lightblue" stroke="black" points="134.5,-1044 0.75,-1044 0.75,-1008 134.5,-1008 134.5,-1044"/>
<text xml:space="preserve" text-anchor="middle" x="67.62" y="-1021.73" font-family="Times,serif" font-size="12.00">W_Complete application</text>
</g>
<!-- 5&#45;&gt;6 -->
<g id="edge6" class="edge">
<title>5&#45;&gt;6</title>
<path fill="none" stroke="black" d="M67.62,-1079.7C67.62,-1072.41 67.62,-1063.73 67.62,-1055.54"/>
<polygon fill="black" stroke="black" points="71.13,-1055.62 67.63,-1045.62 64.13,-1055.62 71.13,-1055.62"/>
</g>
<!-- 7 -->
<g id="node8" class="node">
<title>7</title>
<polygon fill="lightblue" stroke="black" points="105.62,-972 29.62,-972 29.62,-936 105.62,-936 105.62,-972"/>
<text xml:space="preserve" text-anchor="middle" x="67.62" y="-949.73" font-family="Times,serif" font-size="12.00">A_Accepted</text>
</g>
<!-- 6&#45;&gt;7 -->
<g id="edge7" class="edge">
<title>6&#45;&gt;7</title>
<path fill="none" stroke="black" d="M67.62,-1007.7C67.62,-1000.41 67.62,-991.73 67.62,-983.54"/>
<polygon fill="black" stroke="black" points="71.13,-983.62 67.63,-973.62 64.13,-983.62 71.13,-983.62"/>
</g>
<!-- 8 -->
<g id="node9" class="node">
<title>8</title>
<polygon fill="lightblue" stroke="black" points="112.75,-900 22.5,-900 22.5,-864 112.75,-864 112.75,-900"/>
<text xml:space="preserve" text-anchor="middle" x="67.62" y="-877.73" font-family="Times,serif" font-size="12.00">O_Create Offer</text>
</g>
<!-- 7&#45;&gt;8 -->
<g id="edge8" class="edge">
<title>7&#45;&gt;8</title>
<path fill="none" stroke="black" d="M67.62,-935.7C67.62,-928.41 67.62,-919.73 67.62,-911.54"/>
<polygon fill="black" stroke="black" points="71.13,-911.62 67.63,-901.62 64.13,-911.62 71.13,-911.62"/>
</g>
<!-- 9 -->
<g id="node10" class="node">
<title>9</title>
<polygon fill="lightblue" stroke="black" points="101.5,-828 33.75,-828 33.75,-792 101.5,-792 101.5,-828"/>
<text xml:space="preserve" text-anchor="middle" x="67.62" y="-805.73" font-family="Times,serif" font-size="12.00">O_Created</text>
</g>
<!-- 8&#45;&gt;9 -->
<g id="edge9" class="edge">
<title>8&#45;&gt;9</title>
<path fill="none" stroke="black" d="M67.62,-863.7C67.62,-856.41 67.62,-847.73 67.62,-839.54"/>
<polygon fill="black" stroke="black" points="71.13,-839.62 67.63,-829.62 64.13,-839.62 71.13,-839.62"/>
</g>
<!-- 10 -->
<g id="node11" class="node">
<title>10</title>
<polygon fill="lightblue" stroke="black" points="135.25,-756 0,-756 0,-720 135.25,-720 135.25,-756"/>
<text xml:space="preserve" text-anchor="middle" x="67.62" y="-733.73" font-family="Times,serif" font-size="12.00">O_Sent (mail and online)</text>
</g>
<!-- 9&#45;&gt;10 -->
<g id="edge10" class="edge">
<title>9&#45;&gt;10</title>
<path fill="none" stroke="black" d="M67.62,-791.7C67.62,-784.41 67.62,-775.73 67.62,-767.54"/>
<polygon fill="black" stroke="black" points="71.13,-767.62 67.63,-757.62 64.13,-767.62 71.13,-767.62"/>
</g>
<!-- 11 -->
<g id="node12" class="node">
<title>11</title>
<polygon fill="lightblue" stroke="black" points="134.5,-684 0.75,-684 0.75,-648 134.5,-648 134.5,-684"/>
<text xml:space="preserve" text-anchor="middle" x="67.62" y="-661.73" font-family="Times,serif" font-size="12.00">W_Complete application</text>
</g>
<!-- 10&#45;&gt;11 -->
<g id="edge11" class="edge">
<title>10&#45;&gt;11</title>
<path fill="none" stroke="black" d="M67.62,-719.7C67.62,-712.41 67.62,-703.73 67.62,-695.54"/>
<polygon fill="black" stroke="black" points="71.13,-695.62 67.63,-685.62 64.13,-695.62 71.13,-695.62"/>
</g>
<!-- 12 -->
<g id="node13" class="node">
<title>12</title>
<polygon fill="lightblue" stroke="black" points="121,-612 14.25,-612 14.25,-576 121,-576 121,-612"/>
<text xml:space="preserve" text-anchor="middle" x="67.62" y="-589.73" font-family="Times,serif" font-size="12.00">W_Call after offers</text>
</g>
<!-- 11&#45;&gt;12 -->
<g id="edge12" class="edge">
<title>11&#45;&gt;12</title>
<path fill="none" stroke="black" d="M67.62,-647.7C67.62,-640.41 67.62,-631.73 67.62,-623.54"/>
<polygon fill="black" stroke="black" points="71.13,-623.62 67.63,-613.62 64.13,-623.62 71.13,-623.62"/>
</g>
<!-- 13 -->
<g id="node14" class="node">
<title>13</title>
<polygon fill="lightblue" stroke="black" points="121,-540 14.25,-540 14.25,-504 121,-504 121,-540"/>
<text xml:space="preserve" text-anchor="middle" x="67.62" y="-517.73" font-family="Times,serif" font-size="12.00">W_Call after offers</text>
</g>
<!-- 12&#45;&gt;13 -->
<g id="edge13" class="edge">
<title>12&#45;&gt;13</title>
<path fill="none" stroke="black" d="M67.62,-575.7C67.62,-568.41 67.62,-559.73 67.62,-551.54"/>
<polygon fill="black" stroke="black" points="71.13,-551.62 67.63,-541.62 64.13,-551.62 71.13,-551.62"/>
</g>
<!-- 14 -->
<g id="node15" class="node">
<title>14</title>
<polygon fill="lightblue" stroke="black" points="106,-468 29.25,-468 29.25,-432 106,-432 106,-468"/>
<text xml:space="preserve" text-anchor="middle" x="67.62" y="-445.73" font-family="Times,serif" font-size="12.00">A_Complete</text>
</g>
<!-- 13&#45;&gt;14 -->
<g id="edge14" class="edge">
<title>13&#45;&gt;14</title>
<path fill="none" stroke="black" d="M67.62,-503.7C67.62,-496.41 67.62,-487.73 67.62,-479.54"/>
<polygon fill="black" stroke="black" points="71.13,-479.62 67.63,-469.62 64.13,-479.62 71.13,-479.62"/>
</g>
<!-- 15 -->
<g id="node16" class="node">
<title>15</title>
<polygon fill="lightblue" stroke="black" points="121,-396 14.25,-396 14.25,-360 121,-360 121,-396"/>
<text xml:space="preserve" text-anchor="middle" x="67.62" y="-373.73" font-family="Times,serif" font-size="12.00">W_Call after offers</text>
</g>
<!-- 14&#45;&gt;15 -->
<g id="edge15" class="edge">
<title>14&#45;&gt;15</title>
<path fill="none" stroke="black" d="M67.62,-431.7C67.62,-424.41 67.62,-415.73 67.62,-407.54"/>
<polygon fill="black" stroke="black" points="71.13,-407.62 67.63,-397.62 64.13,-407.62 71.13,-407.62"/>
</g>
<!-- 16 -->
<g id="node17" class="node">
<title>16</title>
<polygon fill="lightblue" stroke="black" points="121,-324 14.25,-324 14.25,-288 121,-288 121,-324"/>
<text xml:space="preserve" text-anchor="middle" x="67.62" y="-301.73" font-family="Times,serif" font-size="12.00">W_Call after offers</text>
</g>
<!-- 15&#45;&gt;16 -->
<g id="edge16" class="edge">
<title>15&#45;&gt;16</title>
<path fill="none" stroke="black" d="M67.62,-359.7C67.62,-352.41 67.62,-343.73 67.62,-335.54"/>
<polygon fill="black" stroke="black" points="71.13,-335.62 67.63,-325.62 64.13,-335.62 71.13,-335.62"/>
</g>
<!-- 17 -->
<g id="node18" class="node">
<title>17</title>
<polygon fill="lightblue" stroke="black" points="121,-252 14.25,-252 14.25,-216 121,-216 121,-252"/>
<text xml:space="preserve" text-anchor="middle" x="67.62" y="-229.72" font-family="Times,serif" font-size="12.00">W_Call after offers</text>
</g>
<!-- 16&#45;&gt;17 -->
<g id="edge17" class="edge">
<title>16&#45;&gt;17</title>
<path fill="none" stroke="black" d="M67.62,-287.7C67.62,-280.41 67.62,-271.73 67.62,-263.54"/>
<polygon fill="black" stroke="black" points="71.13,-263.62 67.63,-253.62 64.13,-263.62 71.13,-263.62"/>
</g>
<!-- 18 -->
<g id="node19" class="node">
<title>18</title>
<polygon fill="lightblue" stroke="black" points="106.75,-180 28.5,-180 28.5,-144 106.75,-144 106.75,-180"/>
<text xml:space="preserve" text-anchor="middle" x="67.62" y="-157.72" font-family="Times,serif" font-size="12.00">A_Cancelled</text>
</g>
<!-- 17&#45;&gt;18 -->
<g id="edge18" class="edge">
<title>17&#45;&gt;18</title>
<path fill="none" stroke="black" d="M67.62,-215.7C67.62,-208.41 67.62,-199.73 67.62,-191.54"/>
<polygon fill="black" stroke="black" points="71.13,-191.62 67.63,-181.62 64.13,-191.62 71.13,-191.62"/>
</g>
<!-- 19 -->
<g id="node20" class="node">
<title>19</title>
<polygon fill="lightblue" stroke="black" points="106.75,-108 28.5,-108 28.5,-72 106.75,-72 106.75,-108"/>
<text xml:space="preserve" text-anchor="middle" x="67.62" y="-85.72" font-family="Times,serif" font-size="12.00">O_Cancelled</text>
</g>
<!-- 18&#45;&gt;19 -->
<g id="edge19" class="edge">
<title>18&#45;&gt;19</title>
<path fill="none" stroke="black" d="M67.62,-143.7C67.62,-136.41 67.62,-127.73 67.62,-119.54"/>
<polygon fill="black" stroke="black" points="71.13,-119.62 67.63,-109.62 64.13,-119.62 71.13,-119.62"/>
</g>
<!-- 20 -->
<g id="node21" class="node">
<title>20</title>
<polygon fill="lightblue" stroke="black" points="121,-36 14.25,-36 14.25,0 121,0 121,-36"/>
<text xml:space="preserve" text-anchor="middle" x="67.62" y="-13.72" font-family="Times,serif" font-size="12.00">W_Call after offers</text>
</g>
<!-- 19&#45;&gt;20 -->
<g id="edge20" class="edge">
<title>19&#45;&gt;20</title>
<path fill="none" stroke="black" d="M67.62,-71.7C67.62,-64.41 67.62,-55.73 67.62,-47.54"/>
<polygon fill="black" stroke="black" points="71.13,-47.62 67.63,-37.62 64.13,-47.62 71.13,-47.62"/>
</g>
</g>
</svg>
